ply
format ascii 1.0
element vertex 644
property float x
property float y
property float z
property uchar red
property uchar green
property uchar blue
end_header
0.744904 1.934281 0.483401 155 111 70
0.749142 1.934301 0.475997 162 118 77
-0.047548 0.060449 0.077634 157 111 63
-0.040718 0.084244 0.077206 177 129 90
-0.039294 0.115775 0.020280 167 122 85
-0.038883 0.117151 0.021085 163 119 78
0.005373 0.077844 0.098330 184 136 109
0.044612 0.153748 0.071122 163 116 71
0.008854 0.097989 0.054723 34 21 16
0.008010 0.098151 0.054222 168 125 102
0.008124 0.098153 0.054093 169 123 105
-0.094752 0.072239 0.278778 125 105 80
-0.073971 0.090174 0.065302 136 94 44
-0.076193 0.094471 0.065218 142 95 50
-0.016427 0.022743 -0.023393 124 105 87
-0.114937 0.089074 0.118019 134 94 54
-0.089753 0.085853 0.026371 143 97 49
-0.088799 0.086706 0.025680 148 101 56
-0.104440 0.124083 0.083828 145 99 59
-0.071227 0.092161 0.061577 158 97 41
0.005383 0.077341 0.092091 176 131 98
-0.068796 0.090718 0.060794 170 115 62
-0.050325 0.040389 -0.093921 13 19 24
-0.049933 0.041546 -0.092648 14 14 21
-0.116263 0.091617 0.119139 133 92 54
-0.113943 0.090495 0.119164 140 96 57
-0.077469 0.096717 0.064462 143 99 50
-0.048414 0.042270 -0.089066 17 19 25
-0.049695 0.042235 -0.088601 17 18 22
-0.047866 0.043256 -0.087457 16 21 26
-0.049588 0.043609 -0.088208 19 22 25
-0.047911 0.046212 -0.087353 18 23 30
-0.048148 0.046579 -0.086237 15 20 25
-0.042073 0.046085 -0.073197 18 21 24
-0.072018 0.108102 -0.001166 165 119 67
-0.048935 0.048073 0.011320 142 95 39
-0.046963 0.046647 0.075097 154 107 62
-0.048160 0.046827 0.075864 141 97 56
-0.048889 0.047766 0.076918 140 98 57
-0.027397 0.032872 0.029260 167 110 53
-0.024991 0.031095 0.028537 154 106 56
-0.027319 0.032837 0.029622 159 110 55
-0.027751 0.032123 0.029908 152 108 57
-0.006538 0.046260 0.161842 87 64 40
0.002069 0.061903 0.179209 143 123 100
-0.008124 0.054179 0.152000 121 91 66
0.092051 0.048264 0.098322 173 149 127
-0.014933 0.029618 0.162086 131 106 87
-0.031358 0.045180 0.210905 50 38 26
-0.056462 0.043368 0.166490 148 159 154
-0.023583 0.049980 0.201786 53 42 28
0.001560 0.046463 0.182348 88 61 28
-0.009216 0.042926 0.162868 118 94 75
0.001733 0.047392 0.182005 89 61 31
0.002545 0.047434 0.182524 89 64 30
0.001877 0.048345 0.181711 87 59 29
0.004511 0.055353 0.178627 114 94 67
0.001658 0.058014 0.177907 114 91 65
0.001229 0.059641 0.178591 113 93 66
0.005984 0.063521 0.186119 144 123 106
0.017046 0.063543 0.190583 140 119 99
0.017988 0.063540 0.190899 142 121 101
0.002615 0.062354 0.179913 154 130 108
0.002162 0.063955 0.182717 154 131 107
0.006214 0.064462 0.185617 148 124 105
0.007263 0.064257 0.185714 147 123 104
-0.015847 0.026923 0.162202 119 91 76
-0.026702 0.046614 0.203890 60 49 35
-0.022795 0.050819 0.200733 61 51 33
0.003396 0.047896 0.182784 149 123 94
0.000029 0.049555 0.182313 92 63 31
0.002372 0.049130 0.182465 101 73 43
0.002066 0.049814 0.181014 91 61 32
0.053413 0.026951 0.142104 115 93 83
0.005070 0.054456 0.179810 146 123 97
0.008414 0.054598 0.181948 100 81 61
0.009172 0.058031 0.184691 80 65 46
0.003397 0.057915 0.178628 116 96 69
0.000280 0.057951 0.166478 162 142 117
0.000004 0.061909 0.174656 164 141 115
0.000738 0.062003 0.175321 163 140 114
0.051323 0.034467 0.142379 61 33 34
0.058838 0.033006 0.136175 151 127 111
0.044467 0.051918 0.146148 114 90 71
0.044067 0.052413 0.145598 115 90 71
0.043652 0.053941 0.145189 181 153 135
0.018163 0.084398 -0.016465 236 187 164
0.018989 0.084577 -0.014340 232 185 161
0.045866 0.053744 0.142673 127 102 83
0.051976 0.052076 0.141303 90 69 50
0.054001 0.048508 0.138006 64 47 37
0.054883 0.047763 0.137353 59 44 33
0.053667 0.050607 0.137614 96 75 56
0.054144 0.050983 0.137229 83 62 42
0.065241 0.051743 0.131746 87 69 49
0.065754 0.050686 0.130807 87 69 49
-0.013581 0.017589 0.162536 95 84 106
-0.013762 0.018686 0.162632 147 137 123
0.057727 0.016556 0.139711 137 114 106
0.057265 0.017063 0.139516 81 67 50
0.058196 0.017107 0.140026 82 32 29
0.056920 0.020657 0.139113 86 75 59
0.004059 0.048096 0.182662 157 130 105
0.003331 0.049169 0.181670 147 119 91
0.004271 0.049192 0.182305 155 131 105
0.004489 0.050285 0.181939 154 130 106
0.007600 0.051654 0.187708 149 125 103
0.007503 0.052522 0.190148 144 121 97
0.007181 0.051719 0.183990 151 127 101
0.007762 0.052033 0.185206 150 126 100
0.008645 0.052124 0.185953 147 123 99
0.008815 0.052790 0.187906 142 119 95
0.008367 0.052828 0.184196 147 124 96
0.009075 0.054723 0.189738 133 110 84
0.010002 0.056146 0.190458 114 94 71
0.008714 0.058547 0.185653 88 70 52
0.059333 0.031931 0.135917 140 118 106
0.058468 0.032996 0.135468 132 108 90
0.058064 0.033459 0.135115 175 148 127
0.044100 0.050493 0.146973 41 36 20
0.045246 0.050317 0.145826 50 39 27
0.045071 0.052913 0.142968 181 156 138
0.055341 0.048035 0.137070 65 51 34
0.054331 0.050768 0.136987 93 69 50
0.061554 0.048230 0.134058 153 111 61
0.060173 0.052127 0.131647 151 118 97
0.102055 0.040249 0.101705 74 65 52
0.057570 0.015747 0.140325 150 121 111
0.058607 0.017759 0.141206 152 121 114
0.057823 0.020080 0.139657 137 121 109
0.057322 0.020668 0.139217 81 70 54
0.057905 0.020667 0.139432 124 107 99
0.057931 0.021297 0.139366 136 121 112
0.054727 0.022171 0.138995 94 73 56
0.056612 0.024064 0.139356 113 99 84
0.009143 0.029142 0.105038 151 126 107
0.058256 0.029029 0.136719 82 70 58
0.061560 0.028398 0.136241 127 97 91
0.060268 0.031928 0.134615 158 129 119
0.061520 0.031688 0.134516 124 100 74
0.068189 0.029028 0.130687 25 33 3
0.061097 0.032180 0.133969 172 143 131
0.048231 0.039707 0.143463 110 86 67
0.050672 0.037602 0.139967 113 89 70
0.046629 0.044332 0.145002 116 95 76
0.058770 0.036816 0.135364 161 119 69
0.046795 0.045031 0.144649 116 95 76
0.047512 0.044969 0.144861 115 96 76
0.047019 0.045657 0.144181 115 94 77
0.047948 0.045306 0.143945 114 95 77
0.049251 0.044436 0.142887 114 96 78
0.045633 0.047514 0.145258 74 55 40
0.047191 0.046347 0.143815 108 92 76
0.047985 0.046167 0.143851 110 94 78
0.046485 0.048227 0.145211 101 87 72
0.048810 0.046856 0.143789 109 94 75
0.055499 0.050803 0.135317 115 91 67
0.056346 0.050252 0.134901 99 75 51
0.064556 0.049303 0.132951 169 126 70
0.057516 0.051431 0.132038 160 129 108
0.065100 0.050255 0.133177 169 126 70
0.058338 0.051725 0.131566 161 130 107
0.058932 0.051599 0.131643 159 128 105
0.065655 0.051205 0.133379 172 130 80
0.059051 0.052244 0.131335 162 131 108
0.059637 0.052129 0.131418 160 129 106
0.059802 0.052654 0.130982 161 132 108
0.065898 0.052253 0.132491 106 83 61
0.097500 0.046061 0.095073 162 140 126
0.056397 0.012336 0.140840 76 61 50
0.057160 0.012302 0.140849 76 61 50
0.056466 0.013726 0.140665 86 72 59
0.056505 0.014420 0.140569 87 73 60
0.057324 0.014356 0.140452 89 74 63
0.058401 0.014443 0.141486 86 71 62
0.057889 0.015096 0.140894 156 130 123
0.058442 0.015137 0.141384 149 126 118
0.059085 0.015141 0.141665 143 122 115
0.058515 0.015816 0.141205 87 35 31
0.059277 0.016071 0.143083 152 122 116
0.055893 0.016539 0.140186 31 12 5
0.061298 0.017521 0.143811 79 63 59
0.057995 0.017893 0.140619 151 126 117
0.054576 0.019762 0.141247 111 92 81
0.055796 0.019467 0.140342 31 14 6
0.058019 0.019317 0.140549 163 134 124
0.061094 0.019433 0.142321 135 115 106
0.055097 0.020221 0.140148 105 94 84
0.062652 0.020476 0.144323 72 63 54
0.060916 0.021020 0.142802 139 124 117
0.055804 0.021272 0.138648 93 81 69
0.060797 0.021850 0.143124 129 117 109
0.054071 0.022655 0.140576 100 84 72
0.058312 0.022028 0.139841 146 126 119
0.060379 0.022412 0.142216 103 91 81
0.048339 0.025623 0.146734 133 102 93
0.052529 0.023948 0.142009 99 80 69
0.058382 0.022707 0.139670 103 83 76
0.059022 0.022710 0.139942 101 84 76
0.057470 0.023905 0.138301 89 75 62
0.061748 0.024629 0.142626 75 64 56
0.004812 0.044899 0.184965 163 139 115
0.056668 0.024757 0.138379 109 97 85
-0.022781 0.053702 0.194825 47 41 35
0.004736 0.045765 0.182737 163 136 113
0.005024 0.046227 0.184609 163 139 115
0.006129 0.046266 0.185409 162 138 114
0.005219 0.047564 0.184276 161 137 113
0.061853 0.025738 0.136569 197 178 165
-0.022751 0.059539 0.196909 84 64 41
-0.021606 0.058636 0.188487 88 70 49
0.064295 0.026531 0.135626 186 161 143
0.064899 0.026529 0.135842 127 103 87
-0.020996 0.060687 0.190030 91 74 50
-0.018638 0.060814 0.192137 89 71 45
0.006256 0.052768 0.182599 157 133 107
0.063177 0.027152 0.134963 133 107 96
0.063775 0.027151 0.135190 135 106 96
0.064375 0.027150 0.135412 179 154 138
0.056969 0.029174 0.136054 39 18 14
0.057777 0.029001 0.135923 105 91 76
0.059195 0.028823 0.136039 86 75 61
0.064869 0.027298 0.134053 177 149 131
0.057921 0.029608 0.135604 109 95 80
0.057424 0.030244 0.135082 116 97 82
0.068341 0.028826 0.135592 35 48 12
0.082109 0.032293 0.147534 87 82 111
0.061113 0.030309 0.134898 167 141 102
0.066264 0.028385 0.131988 49 62 20
0.068943 0.028649 0.133567 19 35 2
0.066434 0.029540 0.131519 53 59 19
0.067167 0.029996 0.131236 37 41 13
0.058153 0.033903 0.135032 191 160 137
0.061051 0.033364 0.135023 186 156 140
0.066072 0.031446 0.132567 37 18 4
0.058306 0.035282 0.134679 173 136 105
0.059579 0.036790 0.135068 170 127 70
0.056840 0.039592 0.134554 198 174 148
0.050456 0.045884 0.142152 118 100 80
0.057586 0.040248 0.134544 171 139 110
0.049083 0.047660 0.143009 107 88 73
0.074028 0.031873 0.123736 203 171 155
0.059206 0.044808 0.134159 169 128 71
0.058643 0.048336 0.133725 158 127 95
0.058826 0.048958 0.133322 151 127 103
0.059431 0.048963 0.133600 148 126 96
0.059754 0.049469 0.134509 102 76 49
0.094104 0.028721 0.111680 225 199 186
0.059083 0.049452 0.132762 152 128 106
0.062128 0.051339 0.134027 106 86 63
0.065949 0.051566 0.133139 168 131 88
0.066688 0.051230 0.132953 177 134 78
0.067713 0.050540 0.129939 113 88 69
0.068486 0.050948 0.129533 108 88 65
0.060400 0.013233 0.141590 77 65 60
0.059722 0.014024 0.141114 80 68 63
0.060442 0.014035 0.141484 78 66 61
0.060451 0.014848 0.141443 142 124 121
0.060708 0.015023 0.142741 142 124 122
0.060623 0.015883 0.142889 139 118 111
0.061696 0.019920 0.142458 78 68 65
0.062436 0.020768 0.142789 75 69 65
-0.029057 0.044055 0.201050 41 37 37
-0.028104 0.046146 0.202585 45 35 30
0.000976 0.038226 0.182526 122 87 51
0.001225 0.039665 0.182140 121 89 52
0.002375 0.039722 0.183089 179 151 123
0.002570 0.041179 0.182761 187 160 135
-0.023680 0.051916 0.197394 25 24 16
0.002728 0.044198 0.182386 180 154 127
0.062553 0.025307 0.140548 74 67 66
0.061094 0.026502 0.138084 171 150 141
0.062767 0.025850 0.136558 165 148 140
-0.003146 0.032807 0.115341 175 154 135
-0.003251 0.033080 0.116615 164 142 128
0.062397 0.028372 0.133894 160 137 131
0.063364 0.028959 0.133645 157 132 121
0.063615 0.029566 0.133145 166 141 132
0.064798 0.029143 0.132464 50 52 26
0.068089 0.028575 0.132296 23 41 8
0.082243 0.032645 0.148372 96 93 122
0.070070 0.030499 0.127950 102 68 45
0.070936 0.030231 0.127656 74 41 20
0.070445 0.030858 0.127126 93 59 33
0.071116 0.030788 0.127246 75 44 21
0.072562 0.030524 0.127213 102 99 102
0.073716 0.030613 0.126126 81 122 162
0.074411 0.031223 0.126103 70 124 164
0.073888 0.031880 0.125696 90 131 163
0.074561 0.031757 0.124071 221 201 196
0.075440 0.031353 0.123545 219 207 199
0.074104 0.032340 0.123560 212 179 158
0.076992 0.031483 0.122890 126 103 95
0.077857 0.032458 0.122272 204 178 165
0.058523 0.009312 0.141077 65 59 49
0.054900 0.010420 0.141010 62 50 40
0.057737 0.010272 0.140418 73 64 55
0.055406 0.012347 0.140186 33 21 11
0.061450 0.017550 0.143584 81 71 68
0.003205 0.053484 0.180841 178 154 128
0.100550 0.027721 0.104696 128 123 107
0.100587 0.028295 0.104586 128 113 94
0.060757 0.012649 0.143227 78 71 67
0.060680 0.013870 0.143268 81 71 68
0.059246 0.019693 0.140836 139 121 118
0.059769 0.020735 0.140078 124 112 110
-0.002129 0.036556 0.186249 121 92 60
0.002835 0.051130 0.182697 171 147 129
0.000725 0.057733 0.168309 172 153 138
0.002875 0.057966 0.163711 193 179 166
0.091739 0.029530 0.111448 217 208 199
0.043092 0.145285 0.051907 9 7 4
0.061668 0.014957 0.144190 83 73 70
0.061826 0.016202 0.143901 87 76 76
0.062771 0.016268 0.144772 79 72 68
0.009661 0.034213 0.181434 157 141 129
0.057798 0.024650 0.138174 91 85 79
0.099627 0.019492 0.108438 132 127 117
-0.011627 0.056408 0.176039 117 100 90
-0.011143 0.057661 0.172728 111 106 110
0.001350 0.057902 0.174463 135 116 96
0.002732 0.058005 0.175822 135 114 94
0.002598 0.057958 0.167841 182 166 150
0.116338 0.035806 0.094701 113 104 91
0.137643 0.040392 0.080801 127 91 58
0.137219 0.041640 0.081107 122 85 55
0.061107 0.019856 0.142044 115 103 91
0.114237 0.040665 0.090223 96 82 69
0.117699 0.041372 0.093297 85 79 67
0.113784 0.041382 0.089487 131 113 92
0.114495 0.041315 0.089769 129 114 95
0.116438 0.043303 0.090800 99 90 77
0.116014 0.043976 0.090005 86 74 67
0.136939 0.038569 0.080393 122 86 46
0.138130 0.040045 0.080424 125 86 54
0.137176 0.042181 0.081625 125 87 48
0.137737 0.042178 0.081794 124 86 49
0.056105 0.029387 0.138549 105 91 74
0.118453 0.034304 0.093019 113 103 87
0.118643 0.035113 0.092665 114 103 85
0.114952 0.039098 0.090270 30 19 11
0.136245 0.034959 0.083820 130 94 58
0.137806 0.042661 0.081748 123 87 49
0.132435 0.044761 0.080196 130 108 80
0.118948 0.042031 0.087445 86 70 55
0.136019 0.023832 0.008103 152 126 99
0.215820 0.030539 0.024619 73 63 57
0.215473 0.030787 0.023900 111 97 80
0.215945 0.030807 0.024028 66 57 48
0.215570 0.031230 0.023483 102 91 75
0.212488 0.026366 0.024199 123 102 83
0.199750 0.024606 -0.042562 146 119 98
0.199076 0.025438 -0.038364 156 129 108
0.217035 0.021551 -0.048772 148 119 97
0.217859 0.021247 -0.048628 143 114 94
0.217380 0.021837 -0.048645 152 121 102
0.218295 0.021375 -0.048425 153 124 102
0.217903 0.021841 -0.048385 159 130 108
0.218608 0.021694 -0.048315 169 140 116
0.218249 0.022118 -0.048255 169 140 118
0.217742 0.022782 -0.048298 169 140 118
0.214247 0.012760 0.026967 108 93 74
0.213998 0.012652 0.024410 79 61 41
0.213148 0.025393 0.025344 102 83 70
0.212961 0.026426 0.027187 32 15 14
0.213635 0.025720 0.024458 102 83 68
0.213192 0.026384 0.023725 129 111 91
0.216596 0.031901 0.024867 68 61 57
0.196278 0.024249 -0.038294 121 97 78
0.196658 0.024686 -0.038901 128 104 85
0.197302 0.024345 -0.037833 130 107 85
0.196899 0.024763 -0.037331 135 111 89
0.196708 0.025015 -0.036816 140 116 92
0.196753 0.025081 -0.036294 150 123 102
0.197048 0.025120 -0.039500 136 109 88
0.197599 0.025786 -0.033817 163 134 114
0.197934 0.025306 -0.039033 154 125 103
0.198944 0.026748 -0.040789 152 123 101
0.395969 0.008624 -0.110977 177 147 118
0.389247 0.057311 -0.174952 255 238 213
0.361250 0.006257 -0.083553 135 115 90
0.361653 0.006697 -0.082268 135 117 91
0.361882 0.007702 -0.082689 132 112 87
0.361516 0.008418 -0.084106 121 103 77
0.361913 0.008881 -0.082818 128 108 83
0.359917 0.009413 -0.085574 116 99 73
0.360888 0.009365 -0.085126 112 94 70
0.360170 0.010400 -0.086013 104 84 57
0.358252 0.012507 -0.085285 103 80 52
0.360430 0.011383 -0.086459 104 82 54
0.363328 0.011226 -0.085150 110 93 69
0.390662 0.000500 -0.106830 175 139 106
0.389396 0.008922 -0.107852 181 148 116
0.390140 0.009771 -0.107782 142 103 74
0.410963 0.004220 -0.124165 116 93 69
0.407773 0.007519 -0.123588 188 151 126
0.364148 0.011256 -0.085699 111 93 67
0.364848 0.011522 -0.084665 113 96 72
0.364741 0.012095 -0.086602 103 80 56
0.365377 0.012413 -0.085497 86 69 45
0.390974 0.001160 -0.106725 161 125 95
0.391667 0.001238 -0.106231 100 68 39
0.392554 0.001102 -0.106082 102 72 47
0.391858 0.002029 -0.106626 94 62 35
0.394268 0.000984 -0.107541 107 79 53
0.389938 0.005716 -0.108603 185 153 124
0.411451 0.001746 -0.124988 113 93 68
0.412254 0.002082 -0.125429 112 92 67
0.411606 0.003182 -0.125426 113 89 65
0.409706 0.008762 -0.124070 189 152 127
0.415927 0.146202 -0.144918 23 17 13
0.360735 0.012040 -0.086566 99 76 50
0.390726 0.002481 -0.107492 160 132 104
0.392845 0.007241 -0.109143 142 112 85
0.351793 0.044322 -0.277560 204 182 170
0.350246 0.038814 -0.278773 201 180 173
0.608550 0.080449 0.105708 221 192 170
0.610517 0.077746 0.108854 202 173 151
0.269263 0.065801 0.374606 173 150 128
0.318548 0.068330 0.340599 149 130 109
0.201155 0.079632 0.358246 137 118 98
0.318569 0.068696 0.340555 142 121 101
0.142664 0.042949 0.387052 105 93 88
0.290714 0.051113 0.362642 115 103 95
0.291155 0.051716 0.362016 79 59 36
0.292338 0.051948 0.360790 113 77 75
0.292277 0.051901 0.360287 204 176 159
0.292055 0.054049 0.360097 200 172 155
0.141860 0.041149 0.387208 122 110 102
0.145669 0.042083 0.395844 197 176 167
0.142424 0.043272 0.391182 199 173 160
0.141134 0.045385 0.386813 101 91 85
0.146221 0.048035 0.397632 104 83 63
0.142593 0.048005 0.388098 121 99 85
0.145045 0.048372 0.392783 171 150 148
0.146636 0.048812 0.397457 107 86 66
0.146821 0.048894 0.398247 60 39 19
0.146069 0.049689 0.397496 108 87 67
0.146037 0.050514 0.397417 106 85 65
0.146355 0.052012 0.396346 108 87 67
0.280505 0.048645 0.369565 165 146 131
0.205040 0.073722 0.353177 75 67 52
0.148644 0.035172 0.399170 118 102 88
0.141358 0.041319 0.387548 122 107 98
0.145244 0.042318 0.396162 206 185 176
0.146429 0.043033 0.396650 191 172 154
0.145997 0.043740 0.397258 113 94 73
0.141969 0.046156 0.387742 137 121 109
0.146284 0.052070 0.396358 126 105 85
0.182491 0.079658 0.440949 56 36 21
0.145609 0.048223 0.395938 194 173 154
0.145652 0.048769 0.395879 192 171 152
0.285659 0.052160 0.366247 112 90 78
0.146981 0.054697 0.395779 127 109 85
0.141844 0.061443 0.381820 148 112 76
0.146787 0.064103 0.389829 169 149 134
0.148643 0.068007 0.393265 136 118 98
0.154784 0.067580 0.386257 45 55 40
0.154645 0.067685 0.387187 55 59 44
0.150428 0.074579 0.388954 97 87 66
0.149966 0.074925 0.389924 106 93 71
0.155437 0.077586 0.379843 37 76 67
0.153840 0.081445 0.370181 142 125 115
0.158871 0.081460 0.380789 94 130 128
0.158612 0.081598 0.381635 73 110 100
0.158179 0.081902 0.382425 33 39 24
0.158556 0.082343 0.382457 170 162 147
0.142627 0.042555 0.389961 211 189 175
0.143299 0.049557 0.384707 20 22 18
0.183912 0.058941 0.446996 152 127 108
0.281286 0.054893 0.368439 95 75 60
0.142408 0.056585 0.387860 185 164 145
0.202562 0.071407 0.452266 44 50 57
0.181883 0.071324 0.448102 122 97 79
0.201505 0.072453 0.449942 16 13 8
0.201130 0.073596 0.450826 13 14 5
0.197893 0.073772 0.449902 27 22 11
0.118627 0.081252 0.416092 34 29 17
0.198330 0.075105 0.448299 12 9 2
0.199396 0.075403 0.447464 11 10 4
0.187854 0.075889 0.446959 54 42 30
0.184675 0.074790 0.443550 140 121 101
0.193759 0.075467 0.442978 86 72 57
0.201239 0.077940 0.444197 9 7 4
0.201851 0.078074 0.444336 9 7 4
0.195981 0.077464 0.442747 14 11 6
0.196249 0.078646 0.440267 11 9 6
0.184865 0.084736 0.444979 139 115 97
0.169538 0.068580 0.416772 128 106 94
0.169407 0.068867 0.416381 72 52 39
0.185740 0.088240 0.442124 127 109 89
0.185300 0.087974 0.440800 134 115 94
0.185901 0.090720 0.440947 70 55 34
0.185475 0.090288 0.439507 131 113 92
0.150596 0.076897 0.386798 31 44 24
0.150745 0.076796 0.387197 93 92 71
0.181568 0.093509 0.438411 137 113 95
0.148033 0.081762 0.393900 115 91 67
0.147433 0.083938 0.394171 79 60 39
0.149219 0.084385 0.389840 79 64 53
0.148909 0.087940 0.396001 98 78 55
0.149960 0.089329 0.392806 135 114 97
0.242464 0.043402 0.394778 85 54 33
0.052542 0.067213 0.253667 76 62 49
0.048408 0.071253 0.254776 82 64 46
0.072214 0.056777 0.293368 38 20 20
0.072789 0.058055 0.293398 48 27 28
-0.039261 0.033387 0.130934 117 84 52
0.002788 0.043183 0.104692 32 26 20
0.002696 0.045916 0.103729 30 23 16
0.010897 0.049158 0.096963 25 19 13
0.004553 0.048877 0.101123 146 119 94
0.007032 0.055294 0.099626 113 89 67
-0.007698 0.058483 0.107619 176 149 126
-0.008813 0.060021 0.106790 184 153 130
-0.021226 0.065912 0.113393 206 171 151
-0.043726 0.017180 0.138280 232 199 176
0.001906 0.042610 0.104739 82 67 60
0.002658 0.046196 0.104296 32 22 17
0.001926 0.050668 0.102550 123 103 78
0.004270 0.057393 0.102783 169 138 119
-0.006003 0.056970 0.108144 111 88 66
0.003778 0.059225 0.105771 190 159 138
-0.043811 0.015413 0.138293 218 195 165
-0.043935 0.015484 0.138807 212 186 157
-0.043962 0.016014 0.138727 212 186 159
-0.045079 0.016249 0.140675 242 208 193
-0.036553 0.016102 0.130867 150 109 73
-0.036681 0.028399 0.127898 181 143 126
-0.043866 0.039080 0.132135 188 159 149
-0.039810 0.058514 0.210707 112 85 60
-0.039121 0.058507 0.211128 108 81 56
-0.036741 0.045384 0.127596 139 96 49
-0.034239 0.044973 0.124965 143 102 56
-0.035096 0.045344 0.125593 140 94 64
-0.036288 0.045816 0.127179 139 99 47
-0.032118 0.045424 0.122708 146 101 64
-0.013494 0.039479 0.115134 148 118 93
-0.040597 0.050814 0.128095 144 101 66
-0.035865 0.049602 0.126263 148 104 65
0.002664 0.046272 0.104528 26 25 19
0.002276 0.046937 0.104537 33 22 12
-0.042944 0.063117 0.135256 185 154 133
0.013401 0.053295 0.097847 37 26 14
0.012976 0.054247 0.097496 28 26 15
0.012501 0.054264 0.097475 28 27 21
0.009752 0.057176 0.096649 117 93 71
0.009783 0.057765 0.096926 139 115 91
-0.031068 0.062346 0.131334 194 156 135
-0.043514 0.013561 0.138832 236 206 189
-0.043486 0.013630 0.139416 239 211 193
-0.043947 0.014119 0.138785 234 205 181
-0.044838 0.014187 0.140030 151 124 103
-0.044844 0.014859 0.140559 153 130 106
-0.044473 0.015416 0.139862 226 202 183
-0.044889 0.017978 0.135934 189 158 137
-0.044889 0.018650 0.136461 197 168 144
-0.044789 0.019777 0.135716 187 159 133
-0.043861 0.030065 0.135678 167 136 113
-0.035892 0.032087 0.127858 164 123 76
-0.041511 0.040724 0.129074 89 62 37
-0.041739 0.049830 0.127932 139 97 56
-0.040775 0.049999 0.127389 143 99 56
-0.037369 0.048800 0.127242 144 102 59
-0.044788 0.055589 0.135142 168 139 115
-0.043216 0.062721 0.131750 137 109 81
-0.043198 0.062793 0.132353 135 107 79
-0.042771 0.063139 0.130475 181 147 123
-0.042766 0.063211 0.131074 181 149 124
-0.042755 0.063283 0.131672 179 149 124
-0.041595 0.062794 0.126934 177 139 112
-0.042293 0.063763 0.131000 183 150 127
-0.031213 0.062556 0.131483 191 160 141
-0.032038 0.063382 0.131905 190 159 140
-0.030711 0.062956 0.131423 194 161 142
-0.008441 0.048863 0.107378 158 131 106
-0.015135 0.059285 0.114384 150 121 99
0.012419 0.054161 0.097967 28 25 17
-0.044399 0.014032 0.137450 115 92 68
-0.042524 0.014414 0.136908 133 112 93
-0.043346 0.017167 0.133576 172 135 105
0.105490 0.028070 0.121889 145 135 132
0.018408 0.040883 -0.004729 114 79 59
0.112091 0.024841 0.131883 109 106 101
0.106718 0.028638 0.122275 143 132 124
0.013278 0.038711 -0.009200 156 112 93
0.015860 0.040924 -0.006276 142 102 80
0.017090 0.041376 -0.004533 126 83 58
0.015451 0.043534 -0.004004 230 168 118
0.056867 0.039048 0.129478 188 157 138
0.057156 0.038907 0.129101 184 155 135
0.056673 0.039402 0.129117 184 148 118
0.056652 0.039922 0.128975 162 121 74
0.042331 0.033650 0.149848 55 20 36
0.013349 0.038616 -0.008057 140 96 77
0.040729 0.027708 0.143483 134 113 93
0.037647 0.031988 0.145024 61 32 40
0.002228 0.085780 -0.032774 203 152 117
0.002518 0.085647 -0.030909 204 153 118
-0.004475 0.086977 -0.028610 210 160 123
-0.001899 0.086428 -0.027103 221 172 141
-0.002593 0.086481 -0.026939 213 162 131
-0.009346 0.094135 -0.018616 213 162 131
0.015784 0.038413 -0.005269 152 114 91
0.001809 0.085381 -0.031871 203 154 119
-0.005469 0.086846 -0.031918 197 148 115
-0.039352 0.095521 -0.014737 188 136 96
-0.008179 0.096066 -0.025877 193 144 109
-0.027044 0.035349 -0.058564 136 96 46
0.015753 0.038598 -0.005784 155 118 91
0.015249 0.038964 -0.005844 130 93 70
-0.003413 0.087857 -0.027443 199 151 124
-0.003549 0.088149 -0.026506 190 143 111
-0.003879 0.088465 -0.026745 191 144 112
0.005143 0.085774 -0.020153 227 176 154
0.004511 0.084248 -0.019469 229 178 158
0.029927 0.045618 0.014413 176 130 82
0.030023 0.045535 0.013897 173 127 79
0.028845 0.044201 0.012299 166 118 68
0.015622 0.038543 -0.006236 165 127 102
0.008228 0.043848 -0.010172 191 134 77
-0.021384 0.027243 -0.054276 149 114 94
-0.021685 0.028519 -0.055746 155 123 98
0.029536 0.045957 0.013404 173 124 70
0.031380 0.045779 0.004980 135 95 51
0.013657 0.039950 -0.006623 103 71 46
-0.005988 0.035621 -0.034831 124 83 49
0.008323 0.043012 -0.009556 171 114 55
0.028254 0.046123 0.015401 180 126 68
0.015856 0.036792 -0.006127 155 123 94
0.014941 0.036133 -0.006795 157 123 97
0.015267 0.037252 -0.006295 155 121 93
0.002451 0.085227 -0.031372 177 130 106
-0.004285 0.090341 -0.035166 214 167 145
-0.004962 0.091046 -0.034665 191 144 124
-0.005216 0.019581 -0.032127 70 38 22
0.056530 0.108849 0.050179 182 135 91
-0.019653 0.035693 -0.055162 107 68 39
-0.021850 0.034225 -0.055557 116 85 62
-0.028353 0.036845 -0.064743 141 100 62
-0.037565 0.035078 -0.061743 106 75 54
-0.037761 0.035295 -0.061299 105 78 55
-0.038038 0.035281 -0.061410 104 77 54
-0.028331 0.096257 -0.053813 185 139 109
