ply
format ascii 1.0
element vertex 16
property float x
property float y
property float z
property uchar red
property uchar green
property uchar blue
end_header
-0.048414 0.042270 -0.089066 17 19 25
-0.049695 0.042235 -0.088601 17 18 22
-0.047866 0.043256 -0.087457 16 21 26
-0.049588 0.043609 -0.088208 19 22 25
-0.047911 0.046212 -0.087353 18 23 30
0.061107 0.019856 0.142044 115 103 91
0.114237 0.040665 0.090223 96 82 69
0.117699 0.041372 0.093297 85 79 67
0.113784 0.041382 0.089487 131 113 92
0.114495 0.041315 0.089769 129 114 95
0.116438 0.043303 0.090800 99 90 77
0.116014 0.043976 0.090005 86 74 67
0.136939 0.038569 0.080393 122 86 46
0.138130 0.040045 0.080424 125 86 54
0.137176 0.042181 0.081625 125 87 48
0.137737 0.042178 0.081794 124 86 49
